PathFileType	4	(X/Y/Z)	/Users/itak/Documents/Research/Walk-IL/dataset/trc/00522_00183.trc
DataRate	CameraRate	NumFrames	NumMarkers	Units	OrigDataRate	OrigDataStartFrame	OrigNumFrames
100.000000	100.000000	4	54	mm	100.000000	65	524
Frame#	Time	RPSI			LPSI			L3			STRN			T10			C7			CLAV			RBAK			LBAK			LSHO			LUPA			LAEL			LAOL			LWTS			LWPS			LFRA			LIFD			LHPS			LHTS			RSHO			RUPA			RAEL			RAOL			RWTS			RWPS			RFRA			RIFD			RHTS			RHPS			RBHD			LFHD			RFHD			LBHD			LHIP			RHIP			RASI			LASI			LKNE			LTHI			LANK			LTIP			LTOE			LMT1			LMT5			LHEE			RKNE			RANK			RTIP			RTOE			RMT1			RMT5			RHEE			RTHI			*53			
		X1	Y1	Z1	X2	Y2	Z2	X3	Y3	Z3	X4	Y4	Z4	X5	Y5	Z5	X6	Y6	Z6	X7	Y7	Z7	X8	Y8	Z8	X9	Y9	Z9	X10	Y10	Z10	X11	Y11	Z11	X12	Y12	Z12	X13	Y13	Z13	X14	Y14	Z14	X15	Y15	Z15	X16	Y16	Z16	X17	Y17	Z17	X18	Y18	Z18	X19	Y19	Z19	X20	Y20	Z20	X21	Y21	Z21	X22	Y22	Z22	X23	Y23	Z23	X24	Y24	Z24	X25	Y25	Z25	X26	Y26	Z26	X27	Y27	Z27	X28	Y28	Z28	X29	Y29	Z29	X30	Y30	Z30	X31	Y31	Z31	X32	Y32	Z32	X33	Y33	Z33	X34	Y34	Z34	X35	Y35	Z35	X36	Y36	Z36	X37	Y37	Z37	X38	Y38	Z38	X39	Y39	Z39	X40	Y40	Z40	X41	Y41	Z41	X42	Y42	Z42	X43	Y43	Z43	X44	Y44	Z44	X45	Y45	Z45	X46	Y46	Z46	X47	Y47	Z47	X48	Y48	Z48	X49	Y49	Z49	X50	Y50	Z50	X51	Y51	Z51	X52	Y52	Z52	X53	Y53	Z53	X54	Y54	Z54	

66	0.65	-1234.48583984375	970.4942016601562	-405.0536499023438	-1205.722534179688	970.525146484375	-525.178955078125	-1232.574829101562	1029.020874023438	-469.6714782714844	-1008.495178222656	1203.5869140625	-439.0895690917969	-1246.9443359375	1136.90966796875	-470.478271484375	-1200.4931640625	1366.673461914062	-463.8367004394531	-1045.504516601562	1298.16015625	-445.5286254882812	-1257.319091796875	1244.74755859375	-384.3611145019531	-1213.206298828125	1310.8623046875	-551.8748168945312	-1114.361572265625	1363.077514648438	-614.4703369140625	-1121.796875	1237.08203125	-674.635009765625	-1113.213500976562	1027.716918945312	-700.6658935546875	-1184.03759765625	1018.698486328125	-631.1591796875	-1022.073364257812	842.2383422851562	-664.7271728515625	-1100.753540039062	803.1614379882812	-701.7877197265625	-1094.24560546875	942.8220825195312	-703.4478759765625	-1010.944946289062	686.2274780273438	-654.3185424804688	-1073.76171875	750.8955688476562	-698.1832885742188	-1010.953979492188	764.5327758789062	-683.6251220703125	-1167.494262695312	1365.30078125	-310.8075256347656	-1191.798217773438	1298.430541992188	-256.2222595214844	-1192.58984375	1031.774291992188	-210.1416778564453	-1234.18798828125	1011.903991699219	-257.447021484375	-1080.364868164062	832.9039306640625	-213.4648132324219	-1163.561157226562	805.6691284179688	-186.0712127685547	-1189.65087890625	977.2852783203125	-201.8412628173828	-1076.000244140625	673.2125854492188	-204.6030426025391	-1069.788940429688	741.3999633789062	-184.3828735351562	-1139.776733398438	736.654052734375	-179.2230987548828	-1177.80859375	1523.536010742188	-374.4441528320312	-1035.066040039062	1593.604125976562	-496.6098022460938	-1055.401733398438	1588.087524414062	-370.8847351074219	-1165.853393554688	1525.849731445312	-533.6910400390625	-1075.635864257812	893.8876342773438	-632.6873168945312	-1159.03369140625	868.0953369140625	-263.4124755859375	-1047.930786132812	910.4868774414062	-305.7550048828125	-999.2887573242188	924.0969848632812	-543.5328369140625	-1103.778564453125	472.8316040039062	-594.4734497070312	-1072.717407226562	628.16015625	-611.4187622070312	-1205.017211914062	48.89046478271484	-583.707275390625	-1142.078491210938	329.6903076171875	-601.53515625	-1013.988586425781	38.6868896484375	-502.0200805664062	-1094.277954101562	43.67333221435547	-477.4466857910156	-1094.281127929688	45.90592193603516	-578.973388671875	-1258.377685546875	45.26839828491211	-526.1483154296875	-1168.853759765625	480.6451721191406	-282.44775390625	-1225.095336914062	51.09291839599609	-316.8880920410156	-1169.923461914062	339.3306884765625	-297.9475402832031	-1020.639038085938	43.99411010742188	-336.5496215820312	-1083.015991210938	47.9193000793457	-381.1893920898438	-1113.970092773438	48.62182998657227	-289.5877685546875	-1272.961547851562	41.3463249206543	-369.1589965820312	-1141.87646484375	740.367919921875	-249.6790008544922	nan	nan	nan	
67	0.66	-1234.0712890625	970.5023803710938	-405.310791015625	-1205.220458984375	970.5219116210938	-525.4150390625	-1232.110107421875	1029.025756835938	-469.9371948242188	-1007.975402832031	1203.471069335938	-439.2307434082031	-1246.428344726562	1136.930541992188	-470.7886657714844	-1199.878173828125	1366.651977539062	-464.1138305664062	-1044.984497070312	1298.114501953125	-445.6800537109375	-1256.820922851562	1244.777465820312	-384.6747741699219	-1212.529907226562	1310.835083007812	-552.1527099609375	-1113.654541015625	1363.010131835938	-614.67919921875	-1121.117797851562	1236.99169921875	-674.84228515625	-1112.684326171875	1027.712280273438	-700.852783203125	-1183.46484375	1018.650756835938	-631.3694458007812	-1021.652282714844	842.027099609375	-664.8352661132812	-1100.185302734375	803.0735473632812	-701.9254760742188	-1093.729370117188	942.7259521484375	-703.587158203125	-1010.635803222656	686.0925903320312	-654.3863525390625	-1073.350341796875	750.752685546875	-698.265625	-1010.511169433594	764.3649291992188	-683.65087890625	-1167.023315429688	1365.299072265625	-311.0672302246094	-1191.40087890625	1298.423583984375	-256.4816284179688	-1192.342041015625	1031.777099609375	-210.34716796875	-1233.888305664062	1011.915405273438	-257.6933288574219	-1080.2392578125	832.8497924804688	-213.5585479736328	-1163.428833007812	805.6561279296875	-186.2761688232422	-1189.414916992188	977.30126953125	-202.0493469238281	-1075.994506835938	673.1449584960938	-204.6928863525391	-1069.757446289062	741.3206787109375	-184.4347534179688	-1139.712768554688	736.6180419921875	-179.4215240478516	-1177.17333984375	1523.5439453125	-374.7254638671875	-1034.321899414062	1593.508544921875	-496.8270263671875	-1054.754760742188	1588.0615234375	-371.1004028320312	-1165.09423828125	1525.806640625	-533.9921875	-1075.044799804688	893.7410888671875	-632.7633056640625	-1158.807739257812	868.074462890625	-263.5491333007812	-1047.643798828125	910.4033813476562	-305.8505249023438	-998.984130859375	923.8849487304688	-543.6132202148438	-1103.548950195312	472.7953796386719	-594.496337890625	-1072.259765625	628.0441284179688	-611.4767456054688	-1205.011596679688	48.91100692749023	-583.728759765625	-1141.909057617188	329.6338195800781	-601.605224609375	-1013.986450195312	38.67742919921875	-502.0119934082031	-1094.266967773438	43.67422485351562	-477.44140625	-1094.27490234375	45.89368438720703	-578.9769897460938	-1258.376708984375	45.27976608276367	-526.156494140625	-1168.742919921875	480.6415405273438	-282.5223693847656	-1225.089233398438	51.09450912475586	-316.8992919921875	-1169.844360351562	339.3475036621094	-298.0076599121094	-1020.653442382812	43.9948616027832	-336.5384216308594	-1083.013793945312	47.91931915283203	-381.1919860839844	-1113.962890625	48.62460708618164	-289.5832214355469	-1272.9609375	41.35530853271484	-369.1621704101562	-1141.728149414062	740.372314453125	-249.7806549072266	nan	nan	nan	
68	0.67	-1233.6533203125	970.51318359375	-405.5712280273438	-1204.71728515625	970.5182495117188	-525.656494140625	-1231.639404296875	1029.037231445312	-470.2054748535156	-1007.451110839844	1203.35498046875	-439.3757019042969	-1245.909423828125	1136.95703125	-471.1014709472656	-1199.255126953125	1366.636108398438	-464.4000244140625	-1044.4404296875	1298.06640625	-445.8125	-1256.318725585938	1244.814331054688	-384.9891967773438	-1211.845947265625	1310.805786132812	-552.4317626953125	-1112.936645507812	1362.943237304688	-614.886474609375	-1120.431884765625	1236.898681640625	-675.0498046875	-1112.151611328125	1027.706420898438	-701.040771484375	-1182.870849609375	1018.60107421875	-631.5860595703125	-1021.199096679688	841.8101196289062	-664.927001953125	-1099.594848632812	802.98193359375	-702.0440063476562	-1093.172729492188	942.6271362304688	-703.720703125	-1010.2890625	685.9537963867188	-654.4509887695312	-1072.887939453125	750.6065063476562	-698.3659057617188	-1010.065734863281	764.2255859375	-683.6699829101562	-1166.531616210938	1365.293334960938	-311.32763671875	-1190.986083984375	1298.414794921875	-256.7494201660156	-1192.087036132812	1031.774780273438	-210.5622863769531	-1233.575073242188	1011.929504394531	-257.9529113769531	-1080.081909179688	832.7958984375	-213.6734161376953	-1163.276611328125	805.6490478515625	-186.4868774414062	-1189.1669921875	977.3220825195312	-202.2616424560547	-1075.95703125	673.0855102539062	-204.7922058105469	-1069.706298828125	741.2567138671875	-184.4890899658203	-1139.627807617188	736.5889892578125	-179.6196441650391	-1176.5244140625	1523.55078125	-375.00634765625	-1033.548828125	1593.405883789062	-497.0344848632812	-1054.111572265625	1588.032836914062	-371.3251342773438	-1164.33154296875	1525.770874023438	-534.294921875	-1074.416015625	893.6101684570312	-632.841552734375	-1158.560913085938	868.0514526367188	-263.6578674316406	-1047.3515625	910.3140258789062	-305.95166015625	-998.6323852539062	923.6927490234375	-543.6978149414062	-1103.322875976562	472.7393493652344	-594.5209350585938	-1071.822509765625	627.951416015625	-611.5616455078125	-1205.007690429688	48.92139434814453	-583.74072265625	-1141.75537109375	329.5715942382812	-601.663330078125	-1013.984680175781	38.66944122314453	-502.0061340332031	-1094.25732421875	43.67483139038086	-477.4374694824219	-1094.267822265625	45.87700653076172	-578.9849243164062	-1258.374633789062	45.2916374206543	-526.1669921875	-1168.628662109375	480.6359558105469	-282.5975952148438	-1225.08349609375	51.09808731079102	-316.9099731445312	-1169.76318359375	339.3644104003906	-298.0689392089844	-1020.667358398438	43.99621963500977	-336.5282897949219	-1083.011352539062	47.916748046875	-381.1943664550781	-1113.95751953125	48.62659454345703	-289.5782775878906	-1272.959350585938	41.36360549926758	-369.1664733886719	-1141.574340820312	740.3739624023438	-249.8993072509766	nan	nan	nan	
69	0.68	-1233.232666015625	970.52783203125	-405.827880859375	-1204.20947265625	970.5133056640625	-525.9063720703125	-1231.16162109375	1029.055541992188	-470.4736633300781	-1006.934875488281	1203.236450195312	-439.5141906738281	-1245.386840820312	1136.985961914062	-471.4169921875	-1198.621948242188	1366.625610351562	-464.6950378417969	-1043.857543945312	1298.01123046875	-445.9295959472656	-1255.812255859375	1244.855712890625	-385.3061828613281	-1211.15380859375	1310.773803710938	-552.7159423828125	-1112.205322265625	1362.87548828125	-615.093505859375	-1119.7333984375	1236.801879882812	-675.2536010742188	-1111.616577148438	1027.696533203125	-701.2311401367188	-1182.255981445312	1018.549072265625	-631.8099975585938	-1020.703735351562	841.5978393554688	-664.9946899414062	-1098.9912109375	802.8839111328125	-702.1405029296875	-1092.560913085938	942.5228271484375	-703.84814453125	-1009.896362304688	685.8153076171875	-654.5113525390625	-1072.368286132812	750.4631958007812	-698.4795532226562	-1009.602905273438	764.1162719726562	-683.6834106445312	-1166.023803710938	1365.282470703125	-311.581787109375	-1190.557250976562	1298.405151367188	-257.0220031738281	-1191.82373046875	1031.769165039062	-210.7877655029297	-1233.250122070312	1011.946411132812	-258.2250061035156	-1079.894897460938	832.743896484375	-213.8052520751953	-1163.108154296875	805.6488037109375	-186.6980285644531	-1188.90966796875	977.3444213867188	-202.4766082763672	-1075.882568359375	673.0323486328125	-204.9056091308594	-1069.628662109375	741.205078125	-184.553466796875	-1139.519287109375	736.5669555664062	-179.8170318603516	-1175.862670898438	1523.556884765625	-375.2912292480469	-1032.751708984375	1593.298706054688	-497.2337951660156	-1053.469970703125	1587.99853515625	-371.5578002929688	-1163.553833007812	1525.737670898438	-534.5938720703125	-1073.75439453125	893.4969482421875	-632.9241333007812	-1158.316650390625	868.0458374023438	-263.7506103515625	-1047.051391601562	910.2205200195312	-306.0610046386719	-998.222900390625	923.53076171875	-543.7870483398438	-1103.098022460938	472.6630859375	-594.5485229492188	-1071.405883789062	627.8790283203125	-611.6697998046875	-1205.005737304688	48.92519378662109	-583.7470092773438	-1141.612548828125	329.5037231445312	-601.7108764648438	-1013.983520507812	38.66328811645508	-502.0027160644531	-1094.25048828125	43.67522048950195	-477.4351501464844	-1094.259521484375	45.85363006591797	-578.9974365234375	-1258.37158203125	45.30334091186523	-526.179443359375	-1168.510131835938	480.6290893554688	-282.6728210449219	-1225.078002929688	51.10400390625	-316.9205322265625	-1169.678955078125	339.3801879882812	-298.1333618164062	-1020.679992675781	43.998046875	-336.5204162597656	-1083.007690429688	47.91154861450195	-381.1962280273438	-1113.953369140625	48.62741470336914	-289.5734558105469	-1272.956665039062	41.37081909179688	-369.1725158691406	-1141.421142578125	740.3751831054688	-250.021728515625	nan	nan	nan	
